<svg xmlns="http://www.w3.org/2000/svg" viewBox="0 0 513 450">
    <path  d="M40.9 448.7V177.2H9.4V97.1h71.5V65.4H177v31.4h159.9V65.4H433v31.5h71.8V177h-31.4v271.8c-144.4-.1-288.1-.1-432.5-.1zm415.7-15.9V177.4H57.2v255.4h399.4zM416.9 113V81.4h-64.1v31.3H160.7V81.3H96.8v31.8H25.3v47.5h463.3v-47.7c-23.9.1-47.4.1-71.7.1z"/>
    <path  d="M297 233c-8.6 21.6-16.9 42.4-25.5 63.9h23.9L218.3 374c7.8-19.6 15.9-40 24.3-60.9h-25.3c.8-2.3 1.4-4.1 2.1-5.9 9.3-23.3 18.7-46.6 27.9-70 1.2-3 2.5-4.4 6.1-4.3 14.2.3 28.5.1 43.6.1zm-24.2 16.3c-12.4-1.1-12.4-1.1-16.6 9.6-5 12.5-9.9 24.9-15.1 38 3.9 0 7.2.2 10.5-.1 1.1-.1 2.7-1.2 3.2-2.3 6-14.8 11.9-29.7 18-45.2zm-136 31.8h32v15.7h-31.6v32h-15.9v-31.6h-32v-15.9h31.6v-32h15.9v31.8zm216.4 15.6v-15.4h79.4v15.4h-79.4zM232.6 144.8h-15.4v-15.6h15.4v15.6zm16.7-15.6h15.4v15.4h-15.4v-15.4zm32.1 0h15.3v15.6h-15.3v-15.6z"/>
</svg>
