<svg xmlns="http://www.w3.org/2000/svg" viewBox="0 0 114.92 75.91">
    <path d="M97.47 23.91v-2h-13V11.73a3 3 0 10-2 0v10.18h-50V11.73a3 3 0 10-2 0v10.18h-13v2h13v50h-13v2h80v-2h-13v-50zm-49 2.09l2.14-2.13h5.49l-7.63 7.63zm0 8.32l10.46-10.41h5.49l-16 16zm18 37.42l-2.13 2.13h-5.49l7.62-7.63zm0-8.32L56 73.91h-5.47L66.47 58zm0-8.32l-18 18v-5.45l18-18zm0-8.32l-18 18v-5.5l18-18zm0-8.32l-18 18V51l18-18zm0-8.32l-18 18v-5.45l18-18zm40.75 34.46l3.25 2.31-3.63 1.66.11-1.06a18.91 18.91 0 01-11.18-7.05 18.43 18.43 0 012.35-24.93 18.14 18.14 0 0112.35-4.62 17.91 17.91 0 00-12 5A17.65 17.65 0 0093 47.51a17.28 17.28 0 0014.11 18.12zm-88-4.14A18.94 18.94 0 018 67.51l.1 1.06-3.63-1.66 3.25-2.31.1 1a17.27 17.27 0 0010.24-6 17.32 17.32 0 003.87-12.07 17.7 17.7 0 00-5.42-11.64 18 18 0 00-12-5 18.15 18.15 0 0112.36 4.62 18.35 18.35 0 016 11.91 18.53 18.53 0 01-3.69 13.04zM2.21 52a4.1 4.1 0 01-1.62-1.57 4.43 4.43 0 010-4.43 4.1 4.1 0 011.62-1.55 4.81 4.81 0 012.31-.56 4.82 4.82 0 012.32.56A4.07 4.07 0 018.46 46a4.28 4.28 0 01.59 2.22 4.23 4.23 0 01-.59 2.22A4.07 4.07 0 016.84 52a4.82 4.82 0 01-2.32.56A4.81 4.81 0 012.21 52zM6 50.8a2.81 2.81 0 001-1.06 3.16 3.16 0 000-3 2.72 2.72 0 00-1-1.05 3.09 3.09 0 00-1.52-.38 3.05 3.05 0 00-1.48.34 2.65 2.65 0 00-1 1.05 3.16 3.16 0 000 3 2.74 2.74 0 001 1.1 3 3 0 001.51.37A3.08 3.08 0 006 50.8zm8.14 2v.85H10.1V53l2.15-1.87a3.25 3.25 0 00.51-.55.78.78 0 00.14-.43.54.54 0 00-.26-.46 1.35 1.35 0 00-.77-.18 2 2 0 00-.74.13 1.25 1.25 0 00-.51.39l-.76-.53a2.05 2.05 0 01.84-.66 3.17 3.17 0 011.3-.28 2.38 2.38 0 011.49.41A1.26 1.26 0 0114 50a1.39 1.39 0 01-.19.72 3.31 3.31 0 01-.73.82l-1.37 1.2zm95-8.75v8.4h-1.56v-3.6h-4.35v3.6h-1.56V44h1.56v3.47h4.35V44zm5.73 8.75v.85h-4.08V53l2.21-1.92a3.25 3.25 0 00.51-.55.78.78 0 00.14-.42.55.55 0 00-.26-.47 1.35 1.35 0 00-.77-.18 1.92 1.92 0 00-.74.13 1.13 1.13 0 00-.51.4l-.76-.54a2.14 2.14 0 01.84-.66 3.17 3.17 0 011.25-.23 2.38 2.38 0 011.49.41 1.26 1.26 0 01.54 1.06 1.49 1.49 0 01-.19.72 3.19 3.19 0 01-.74.82l-1.36 1.2zM78.47 8.91L58 16.83l-2.55 1V5.32l-19 3.59L56.92 1l2.55-1v12.51z" />
</svg>
