<svg xmlns="http://www.w3.org/2000/svg" viewBox="0 0 29 20.87">
    <path d="M24.69 20.87c-1 0-2.06-.75-2.88-2.18a.52.52 0 01-.06-.13 9.29 9.29 0 01-1.29 1.69c-1 .8-2.32.34-3.73-1.27a7.54 7.54 0 01-1.67 1 1.58 1.58 0 01-1.79-.69 5.9 5.9 0 01-.81-1.66 1.71 1.71 0 01.07-.88 4 4 0 01-.64.35 5.38 5.38 0 01.73 1.11 1.41 1.41 0 01-.6 1.67 5.69 5.69 0 01-1.52.82c-.66.25-2.6-.45-2.87-1.17a1.74 1.74 0 01-.13-.59l-.26.06-.36.09c-.62.16-1.55.4-2.16-.24v.09c0 .47-.23 1.57-2.6 1.6A3 3 0 010 18.47a2.1 2.1 0 012.07-2.12h.28a3.35 3.35 0 011.18.08 7.19 7.19 0 01-.31-1c-.3-1.42.63-2.52 2.48-2.95a3.54 3.54 0 01-.27-.26A1.83 1.83 0 015.36 10 6.93 6.93 0 016.8 8.35a3.34 3.34 0 012-.34L9 8a4.57 4.57 0 01-.44-2.17c0-.72 1.5-2.34 2.35-2.34h.35a1.14 1.14 0 01-.33-.44A2.11 2.11 0 0111 1.5 2.09 2.09 0 0112.16.42l.27-.11a1.93 1.93 0 011.76-.14A5.76 5.76 0 0115.53 2a1.33 1.33 0 01-.27 1.34 2.84 2.84 0 012.65 1.42c.06.11.14.23.22.36.43.68 1 1.53.64 2.3a2.1 2.1 0 01-.23.37 2.53 2.53 0 012.09-.2 6.58 6.58 0 011.75 2.2 1.37 1.37 0 010 1.07 2.39 2.39 0 011.3.31 2.06 2.06 0 011.13 1.42c0 .09.05.2.08.3a4.45 4.45 0 01.17 1 3.79 3.79 0 011.06 0 2.6 2.6 0 012 1.23 3.48 3.48 0 00.22.36c.43.66 1 1.57.5 2.44a13.66 13.66 0 01-2.94 2.68l-.25-.43.25.43a2.26 2.26 0 01-1.21.27zm1-6.06a3.3 3.3 0 00-1.63.46 5.32 5.32 0 00-1.33 3c.47.81 1.48 2.14 2.67 1.45a14.08 14.08 0 002.58-2.32c.19-.32-.09-.8-.48-1.39l-.25-.41a1.59 1.59 0 00-1.25-.77 1.62 1.62 0 00-.35-.02zm-15 2.44a3.63 3.63 0 00-.92.29l-.33.13a1.4 1.4 0 00-.74.65 1.06 1.06 0 00-.06.85 3.51 3.51 0 001.61.58 4.34 4.34 0 001.21-.66c.39-.31.33-.48.31-.53a5.85 5.85 0 00-1-1.29zm6.77.95c.3.35 1.68 1.9 2.43 1.28a7.88 7.88 0 001.4-2.05c.07-.3-.44-.86-.78-1.23l-.3-.35a1.81 1.81 0 00-2.55-.22 2.73 2.73 0 00-.3 1.27 2.25 2.25 0 01.02 1.3zm-14.67-.87h-.71a1.11 1.11 0 00-.77.33 1.13 1.13 0 00-.31.78 3 3 0 001.15 1.08c.77 0 1.58-.2 1.57-.58a5.54 5.54 0 00-.45-1.56c-.05-.04-.27-.05-.48-.05zm12-1.83a1.55 1.55 0 00-.43.07 3.6 3.6 0 00-.9 1.78 5.07 5.07 0 00.64 1.32c.36.45.59.38.7.35a8.37 8.37 0 001.55-1 5.84 5.84 0 010-1c0-.07-.05-.14-.07-.2l-.13-.36a1.36 1.36 0 00-.68-.82 1.48 1.48 0 00-.72-.14zM6 13.44c-.92.2-2.06.68-1.82 1.81a13.8 13.8 0 001.22 2.89c.2.22.65.13 1.21 0L7 18a1.29 1.29 0 00.88-.82 2.87 2.87 0 00.15-1.78A4.86 4.86 0 006 13.44zm3.13 3.06v.2l.19-.08zm12.53-.41a3 3 0 01.38.58 5.79 5.79 0 01.29-.68l-.21.06a2.45 2.45 0 01-.46.04zm-10.29-2.17a3.8 3.8 0 00-.72.24l-.3.12a1.08 1.08 0 00-.61.56 1.07 1.07 0 000 .84 3.09 3.09 0 001.44.64 2.45 2.45 0 001.29-.85.28.28 0 000-.22 5.59 5.59 0 00-.78-1.16 1.61 1.61 0 01-.32-.17zM22 15.56zm.36-3.72a2.18 2.18 0 00-.43.05 3.61 3.61 0 00-1.31 1.63 3.58 3.58 0 00.49 1.2.7.7 0 00.79.35 9 9 0 002.05-1c.14-.14 0-.65-.08-1l-.09-.35a1.1 1.1 0 00-.61-.75 1.82 1.82 0 00-.8-.13zm-9 3.06a1.42 1.42 0 01.05.16 1.37 1.37 0 01.6-.44 2.4 2.4 0 011.5 0 1.75 1.75 0 01-.37-.52 3.14 3.14 0 01-.17-.77 1.31 1.31 0 01-.12.11 6.3 6.3 0 01-1.94.66 4.78 4.78 0 01.45.79zM8.28 14a6.13 6.13 0 01.48.62 1.11 1.11 0 01.07-.16A2.09 2.09 0 0110 13.34l.27-.11.47-.18a4 4 0 01-.17-.55l-.1.1a3.92 3.92 0 00-.31.28A3.09 3.09 0 018.28 14zm8.54-1.65a1.45 1.45 0 00-.36.13l-.22.08c-.15.06-.21.27-.23.35a1.64 1.64 0 00.08.89 2.78 2.78 0 001 .82 1.55 1.55 0 00.5-.33.45.45 0 00.07-.49 8.27 8.27 0 00-.85-1.45zm1.92 1.9H19a2.65 2.65 0 01.88.22 4.19 4.19 0 01-.22-.77 1.72 1.72 0 01.34-1.1l-.3.12a2.67 2.67 0 01-1.45-.11 6.8 6.8 0 01.41.81 1.55 1.55 0 01.08.79zm-6.56-1h.07a7.24 7.24 0 002-.56c.18-.14.15-.81.14-1.18v-.4A1.47 1.47 0 0014 10a1.43 1.43 0 00-1-.43 3.61 3.61 0 00-1.47 1.5 3.74 3.74 0 00.32 1.93l.19.1a1.1 1.1 0 01.14.1zM8.31 9a2.05 2.05 0 00-.87.13 5.84 5.84 0 00-1.21 1.39c-.37.69-.13 1 0 1.07A8.07 8.07 0 008.26 13c.31.06.85-.45 1.22-.8l.34-.31a1.74 1.74 0 00.62-1.23A1.81 1.81 0 0010 9.29 3.72 3.72 0 008.31 9zm6.69.72a2.49 2.49 0 01.41 1.35v.85a1.15 1.15 0 01.49-.33l.16-.07.15-.07a.55.55 0 01-.05-.13 2.21 2.21 0 010-1.46A1.7 1.7 0 0115 9.72zm5-1.31a4.58 4.58 0 00-1.26.37l-.46.22a2 2 0 00-1.07.88A1.38 1.38 0 0017.1 11a4.32 4.32 0 002.21.8 4 4 0 002.11-1.34.39.39 0 000-.33 6.41 6.41 0 00-1.29-1.67.48.48 0 00-.13-.05zm-9.12.34a2.73 2.73 0 01.45.84 2.81 2.81 0 011.61-1 2.59 2.59 0 01.92.17 8 8 0 01-.77-1.07 1.15 1.15 0 01-.33.41 6.3 6.3 0 01-1.91.65zm5.48.49zm-.88-4.92a1.86 1.86 0 00-.92.24 4.47 4.47 0 00-.67 2.53c.22.36 1.36 2.23 2.22 1.72A8.35 8.35 0 0017.85 7c.12-.29-.29-.94-.56-1.38-.09-.13-.18-.27-.25-.39a1.81 1.81 0 00-1.11-.86 2 2 0 00-.48-.05zM9.54 5.88c0 .9.2 1.94.73 1.94a6.69 6.69 0 001.86-.51c.15-.12.13-.74.11-1.07v-.38a1.33 1.33 0 00-1.34-1.34 3.53 3.53 0 00-1.36 1.36zm3.07-1.61a2.25 2.25 0 01.52.91 5.23 5.23 0 01.32-.79 2 2 0 01-.84-.12zm1-3.27a3.12 3.12 0 00-.77.24l-.3.12a1.07 1.07 0 00-.62.56 1.11 1.11 0 000 .84 3.3 3.3 0 001.45.64c.71-.27 1.42-.71 1.29-1.07A5.91 5.91 0 0013.65 1z" />
</svg>
