<svg xmlns="http://www.w3.org/2000/svg" viewBox="0 0 14 13.5">
    <path d="M13.5 13.5H.5A.5.5 0 010 13a.5.5 0 01.5-.5h13a.5.5 0 01.5.5.5.5 0 01-.5.5zM10.56 12a4.28 4.28 0 01.87-1.34 2.54 2.54 0 00.42-.84 1.79 1.79 0 00-.13-1 11.73 11.73 0 01-.64-1.4.65.65 0 010-.47 5.9 5.9 0 01.34-.64 4.69 4.69 0 00.41-.81 1.71 1.71 0 000-1.12 7.85 7.85 0 00-.86-1.49 1.08 1.08 0 01-.18-.56 1.92 1.92 0 01.18-.68A3.18 3.18 0 0011.48 0a4.16 4.16 0 01-.87 1.35 2.4 2.4 0 00-.42.83 1.73 1.73 0 00.12 1c.22.57.56 1 .64 1.41a.75.75 0 01-.06.48 5.23 5.23 0 01-.35.63 4.68 4.68 0 00-.42.81 1.74 1.74 0 000 1.13 8.23 8.23 0 00.85 1.5 1 1 0 01.17.54 1.73 1.73 0 01-.18.67 3.2 3.2 0 00-.48 1.65zm-4 0a4.28 4.28 0 01.87-1.34 2.54 2.54 0 00.42-.84 1.79 1.79 0 00-.13-1 11.73 11.73 0 01-.64-1.4.65.65 0 010-.47 5.9 5.9 0 01.34-.64 4.69 4.69 0 00.41-.81 1.71 1.71 0 000-1.12 7.85 7.85 0 00-.86-1.49 1.08 1.08 0 01-.18-.56 1.92 1.92 0 01.18-.68A3.18 3.18 0 007.48 0a4.16 4.16 0 01-.87 1.35 2.4 2.4 0 00-.42.83 1.73 1.73 0 00.12 1c.22.57.56 1 .64 1.41a.75.75 0 01-.06.48 5.23 5.23 0 01-.35.63 4.68 4.68 0 00-.42.81 1.74 1.74 0 000 1.13 8.23 8.23 0 00.85 1.5 1 1 0 01.17.54 1.73 1.73 0 01-.18.67A3.2 3.2 0 006.48 12zm-4 0a4.28 4.28 0 01.87-1.34 2.54 2.54 0 00.42-.84 1.79 1.79 0 00-.13-1 11.73 11.73 0 01-.64-1.4.65.65 0 010-.47 5.9 5.9 0 01.34-.64 4.69 4.69 0 00.41-.81 1.71 1.71 0 000-1.12 7.85 7.85 0 00-.86-1.49 1.08 1.08 0 01-.18-.56 1.92 1.92 0 01.18-.68A3.18 3.18 0 003.48 0a4.16 4.16 0 01-.87 1.35 2.4 2.4 0 00-.42.83 1.73 1.73 0 00.12 1c.22.57.56 1 .64 1.41a.75.75 0 01-.06.48 5.23 5.23 0 01-.35.63 4.68 4.68 0 00-.42.81 1.74 1.74 0 00-.05 1.13 8.23 8.23 0 00.85 1.5 1 1 0 01.17.54 1.73 1.73 0 01-.18.67A3.2 3.2 0 002.48 12z" />
</svg>
