<svg xmlns="http://www.w3.org/2000/svg" viewBox="0 0 8 16.31">
    <path d="M6.5 16.31h-5a1.5 1.5 0 01-1.5-1.5v-10a1.5 1.5 0 011.5-1.5h.33a.63.63 0 00.51-.18c0-.07-.06-.13-.09-.13-.62 0-1.08-.64-1.08-1.5A1.5 1.5 0 012.67 0h2.66a1.5 1.5 0 011.5 1.5c0 .86-.46 1.5-1.08 1.5 0 0-.08.06-.08.16a.74.74 0 00.5.15h.33A1.5 1.5 0 018 4.81v10a1.5 1.5 0 01-1.5 1.5zm-5-12a.5.5 0 00-.5.5v10a.5.5 0 00.5.5h5a.5.5 0 00.5-.5v-10a.5.5 0 00-.5-.5h-.33c-.84 0-1.5-.51-1.5-1.15A1.12 1.12 0 015.75 2a3.86 3.86 0 00.08-.5.5.5 0 00-.5-.5H2.67a.5.5 0 00-.5.5.76.76 0 00.15.5 1.09 1.09 0 011 1.14c0 .64-.66 1.15-1.5 1.15zm2.92 6.32h-.33V9.28H2.58v1.35h-.33V7.77h.33V9h1.51V7.77h.33zM6 12H4.92v-.17l.44-.44.27-.29a.65.65 0 00.09-.16.57.57 0 000-.18.25.25 0 00-.08-.21.31.31 0 00-.22-.08.64.64 0 00-.2 0 1.35 1.35 0 00-.21.13l-.1-.13a.77.77 0 01.51-.19.52.52 0 01.36.12.42.42 0 01.14.32.59.59 0 01-.09.31 1.75 1.75 0 01-.34.4l-.36.35H6z" />
</svg>
