<svg xmlns="http://www.w3.org/2000/svg" viewBox="0 0 20.44 21">
    <path d="M20 2.12V1a.52.52 0 000-1H3.5C1.82 0 0 .5 0 1.61v17.78C0 20.5 1.81 21 3.5 21c1.33 0 2.73-.32 3.26-1H20a.52.52 0 000-1v-1.12a.52.52 0 000-1v-1.1a.52.52 0 000-1v-1.11a.52.52 0 000-1v-1.1a.52.52 0 000-1V9.46a.52.52 0 000-1v-1.1a.52.52 0 000-1V5.25a.52.52 0 000-1v-1.1a.52.52 0 000-1.03zm-1 10.54H7V7.34h12zM1 8.88a6.48 6.48 0 002.5.45A6.48 6.48 0 006 8.88v4.94c-.08.18-.92.62-2.5.62S1.08 14 1 13.82zm0-6.11a6.48 6.48 0 002.5.45A6.48 6.48 0 006 2.77v4.94c-.08.18-.93.62-2.5.62S1.08 7.89 1 7.71zm18 3.57H7V1.61A.94.94 0 006.76 1H19zM3.5 1a3.88 3.88 0 012.5.59c-.07.18-.92.63-2.5.63A3.76 3.76 0 011 1.61 3.74 3.74 0 013.5 1zm0 19a3.69 3.69 0 01-2.5-.61V15a6.48 6.48 0 002.5.45A6.48 6.48 0 006 15v4.38a3.62 3.62 0 01-2.5.62zM19 19H7v-5.34h12z" />
</svg>
