<svg xmlns="http://www.w3.org/2000/svg" viewBox="0 0 13.74 21.18">
  <path d="M7.44,21.14a2.55,2.55,0,0,0,1.45-4.21,2.65,2.65,0,0,0-1.21-.77V15l.2-.15,3.48-2.43a1.69,1.69,0,0,0,.8-1.53c0-.33,0-.66,0-1h.5a1.11,1.11,0,0,0,1.07-1.07c0-.34,0-.67,0-1s0-.66,0-1a1.13,1.13,0,0,0-.86-1l-.22,0c-.77,0-1.55,0-2.32,0a1.08,1.08,0,0,0-1.05,1c0,.68,0,1.37,0,2a1.1,1.1,0,0,0,1.11,1.06h.45v1.28h0L7.68,13.31h0V4.9h1a1,1,0,0,0,1.1-1,1.28,1.28,0,0,0-.19-.59C9.07,2.37,8.53,1.48,8,.6a1.14,1.14,0,0,0-2,0c-.56.89-1.12,1.79-1.66,2.69a1.26,1.26,0,0,0-.19.67,1,1,0,0,0,1.06,1H6.33v9.63h0l-3.5-2.64h0V11h0A2.37,2.37,0,0,0,4.32,9a1.81,1.81,0,0,0-.06-.56,2.22,2.22,0,0,0-2-1.67A2.18,2.18,0,0,0,.11,8.21a2.11,2.11,0,0,0,0,1.36,2.21,2.21,0,0,0,1.38,1.37h0c0,.25,0,.47,0,.69a2.15,2.15,0,0,0,0,.45,1.68,1.68,0,0,0,.71,1c.59.43,1.17.88,1.76,1.32l2.27,1.72h0l-.18.09a2.55,2.55,0,0,0-1.42,3.44,2.67,2.67,0,0,0,.59.81,2.91,2.91,0,0,0,1.41.68H7.3l.13,0Z"/>
</svg>
