<svg xmlns="http://www.w3.org/2000/svg" viewBox="0 0 42.4 32.4">
  <path d="M11.5 22.2v-8.3c0-.9-.3-1.1-1.1-1.1-1.4.1-2.8 0-4.2 0-.2 0-.6.2-.7-.2 0-.4.4-.5.7-.5 1.4 0 2.9-.1 4.3 0 .8 0 1-.3 1-1V6.2c0-.5-.1-.9-.5-1.2-.7-.6-.7-1.4 0-2.1.7-.8 1.5-.7 2.2 0s.6 1.5 0 2.1c-.3.3-.5.6-.5 1.1v5.2c0 .6.1.9.9.9H29c.8 0 .9-.3.9-1V6.9c0-.7.1-1.4-.6-2-.7-.7-.3-1.6.4-2.2.7-.6 1.5-.3 2 .2.5.6.6 1.4-.1 2-.5.4-.6.9-.6 1.5 0 1.6.1 3.2 0 4.8 0 .8.2 1 1 .9h4.3c.3 0 .8-.1.8.5 0 .5-.5.3-.8.3-1.4 0-2.8.1-4.2 0-.8 0-1.1.1-1.1 1v16.7c0 .8.3 1.1 1.1 1h4.3c.3 0 .6-.1.6.4s-.4.3-.6.3c-3.9-.1-7.8.2-11.7 0-3.4-.1-6.8 0-10.3 0H6.6c-.3 0-.9.2-.9-.3 0-.7.6-.3.9-.3h4.1c.7 0 1-.3.9-1-.1-2.9-.1-5.7-.1-8.5zm14.3-8.7c-.5.1-.7.3-.9.6l-6.2 6.2c-1.1 1.1-2.6 2.2-1.7 4.3 2.6-2.6 5-5.2 7.6-7.7 1-1 1.5-2 1.2-3.4zm0 6.4c-.2.1-.4.1-.5.2-2.5 2.5-4.9 5.1-7.5 7.5-1.1 1-1.2 2-1 3.3.5-.1.7-.5 1-.8 2.3-2.3 4.6-4.7 7-6.9 1-.9 1.2-2 1-3.3zm0-3.2c-.5 0-.8.4-1 .7-2.4 2.4-4.7 4.8-7.1 7.1-1.1 1-1 2-.8 3.5 2.9-2.9 5.4-5.7 8.1-8.3 1-1 .9-1.9.8-3zm0 6.7l-8 8c1.5.2 1.8.1 2.5-.5 1.3-1.3 2.7-2.6 4-4 .9-1 2.1-1.9 1.5-3.5zm-1-10.4c-1.7-.3-1.8-.3-2.9.8-1.5 1.5-2.9 3-4.4 4.4-1 .9-.7 1.9-.7 2.7 2.6-2.7 5.3-5.3 8-7.9zm1 13.7c-1.6 1.6-3.3 3.2-4.9 4.8 2.9.1 5.2-2.1 4.9-4.8zm-9-9.4c1.5-1.4 3.1-3 4.7-4.5-2.9-.1-5 2-4.7 4.5zm7.1 14.1c1.9.4 2.1.2 1.7-1.8-.6.5-1.2 1-1.7 1.8zm-7.1-16.9l.3.3c.4-.5.7-.9 1.1-1.4.4-.4.2-.6-.3-.6-1.2-.1-1.2-.1-1.1 1.7z"/>
  <path d="M39.8 16.1c-2.5.1-4.6.9-5.8 3.1-1.5 2.6-.1 6 3.1 7.2.1.1.4.1.4.1.8-1.6 1.5 0 2.2.1.6.1 1.2.4 1.6 1l-2.7 1.5c-.2.1-.8.4-.7 0 0-1.1-.8-1-1.4-1.2-2.8-1-4.5-3.4-4.1-6.6.3-2.4 2-4.7 4.9-5.3.7-.3 1.5-.5 2.5.1zM4.6 29.3c-1.2-.6-2.3-1.2-3.4-1.8.9-.8 1.9-1.2 2.9-1.6.1-.1.4-.1.4-.1 1.3 1.6 2.1-.1 2.7-.6 1.5-1.1 2.2-2.7 1.8-4.6-.5-2.3-2-3.7-4.2-4.3-.7-.2-1.4-.3-2.2-.2 2.3-1 5.4.3 6.8 2.6 2.3 3.8-.2 8.5-3.9 9.2-.9.1-.7.8-.9 1.4zM19.2 7.7c.4-1.5.7-2.8 1.1-4 .3-.8-.1-.8-.7-.7-1.5.3-2.9.6-4.5.7 2.7-1.2 5.3-2.4 8.2-3.7-.4 1.7-.8 3.2-1.2 4.9 1.8-.3 3.4-.6 5-1 0 .1 0 .1.1.2-2.6 1.2-5.2 2.3-8 3.6z"/>
  <path d="M3.3 20.3v1.3c0 .3 0 .7-.4.7s-.5-.3-.5-.7.2-.9-.5-1c-.7 0-1.1 0-1 .9 0 .3.1.7-.4.8-.4 0-.6-.3-.5-.8v-2.3c0-.4-.1-.9.5-.9.5 0 .4.5.4.8-.1 1 .6.8 1.2.7.6-.1.3-.6.3-1 .1-.3.1-.6.4-.6.4 0 .5.3.5.7v1.4zM35.5 20.5c0-1.4.7-2.1 2-2.1.9 0 1.7.9 1.7 1.9 0 1.2-.8 2.1-2 2-1 0-1.7-.7-1.7-1.8zm2.9-.2c-.1-.7-.2-1.2-1.1-1.3-1 0-.9.8-1 1.3 0 .6.2 1.3 1 1.4.9.1.9-.8 1.1-1.4zM5.4 23c.4.4 1.3-.1 1.2.5-.1.7-.8.2-1.3.3-.4 0-1 .3-1.2-.2s.5-.7.7-1.1c.1-.2.3-.3.5-.5.2-.3.6-.5.3-.9-.2-.4-.6-.4-.9-.4-.2 0-.4 0-.6-.1.5-.6 1.2-.8 1.9-.3.8.5.6 1.2-.6 2.7zM39.9 20.7c.7-.7 1.5-1 2-.3 1 1.1-.2 1.8-.8 2.6.3.5 1 0 1.3.6-.7.5-1.5.2-2.3.2-.4 0-.3-.4-.1-.6.3-.4.7-.7 1-1s.6-.6.5-1c-.2-.5-.7-.3-1-.4-.3-.1-.5-.1-.6-.1z"/>
</svg>