<svg xmlns="http://www.w3.org/2000/svg" viewBox="0 0 300 300">
  <path d="M282 214.2c-2-2.4-4.7-4.2-7.7-5.1 1.5-.6 2.9-1.4 4.1-2.6 2.1-2.1 3-5.1 2.3-7.9-.7-4.2-3.3-7.8-7-10-3.6-2.1-7.9-2.5-11.7-1-.9.3-1.7.7-2.5 1.3-1.3 1-2.3 2.3-3 3.8l-.3-.6c-3.9-5.4-8.7-10-14.3-13.6l-.3-.1c-1.1-.5-2.2-.9-3.3-1.2 6-1.6 9.4-4 10.9-7.4 2-4.8-.7-10-3.6-14.4-1.4-2.7-3.9-4.6-6.8-5.4-3.8-.6-7 1.8-11 4.9-1.1.9-2.4 1.8-3.8 2.8l-.5.5c.6-2.4.8-4.9.5-7.4-.6-7.6-2.6-12.4-6.4-15.3-1.7-1.2-3.6-2.1-5.7-2.5 2.2-.2 4.5-.7 6.6-1.5 5.6-2.1 9.8-6.9 10.9-12.8 1-7.1-1.9-14.2-7.5-18.6-5.1-4.7-12.5-5.6-18.6-2.3-3.6 1.6-6.4 4.5-7.9 8.1-.5 1.3-.8 2.7-.9 4.1-.6-.7-1.4-1.3-2.1-1.8-3.4-1.7-7-3.3-10.6-4.6h.4c6.4-1.9 20.7-9 21.8-17.5.4-3.9-1.8-7.6-5.4-9.2-7.8-4.7-18.8-9.6-27-6.8-.4 0-.8.4-1.2.5 1.2-4.5 1.2-9.2 0-13.7-1.1-5.4-3.4-9-6.7-10.5-4.7-2.2-10 0-14.1 2.2-1.1.6-10.6 5.8-13.6 13.1-1 2-1.1 4.4-.1 6.4 1.5 2.4 4 4 6.8 4.5-5.7.6-13.4 2.3-18 7.1-3 3.2-4.4 7.6-3.7 12 1.1 10 5.6 14.6 9.4 16.7-3.5 1.8-6.7 4.2-9.4 7.1-.7.8-1.3 1.5-2 2.2v-.3c.2-5.4-3.8-11.1-12.2-17.3-4.4-3.7-10.6-4.2-15.5-1.1-7 4.3-11.3 14.8-10.3 20.7 1 4.4 4 8 8.1 9.8-1.9.1-3.7.7-5.3 1.6-2.2 1.4-3.6 3.8-3.8 6.4v.6c-.6 6-1.1 12.2 2.8 16.6.9 1 1.9 1.8 3 2.4h-.3c-6 .2-11.2 4.5-15 12.8-1.7 3.8-2.7 11 10.6 17.6 1.3.7 2.7 1.3 4.1 1.8-2.4.7-4.4 2.2-5.8 4.2v-1.6c-.7-4.2-3.3-7.9-7-10-3.6-2.1-7.8-2.4-11.7-1-.9.3-1.7.7-2.5 1.3-2.8 2.5-4.6 5.8-5.1 9.5l-.2.9c-.3 1.3-.5 2.6-.4 3.9-4.4-.9-8.9-.3-12.8 1.7-3.7 1-6.7 3.8-8 7.4-1.2 4.4 1.5 8.6 4 11.7.5.7 6.5 7.9 13 9.3.7.2 1.4.2 2.1.2 1.3 0 2.6-.4 3.6-1.1 2.6-2 3-5.6 3.4-11 0-1.6.3-3.5.5-5.5s.2-4-.2-6l.6.2c2 .4 4 .5 6 .5 4.5.3 8.9-1.1 12.4-4 .2-.2.4-.5.6-.7-.2 3.8.5 7.6 2.1 11.1l.4 1.4c-3.2-2.3-7.3-3.1-11.2-2.2-4.6 1.3-8.2 6.2-10.1 10.4-3 7.1-2.1 13.5 2.5 16.7 1.8 1.2 4 1.8 6.2 1.7 3.3-.2 6.5-.8 9.7-1.8l.6-.2c7-2 11-5.1 12-9.2.2-.7.2-1.4.2-2.2 1.8.6 3.7.9 5.6 1h.9c2.2 0 4.4-.4 6.4-1.3-.1 1.1-.1 2.3 0 3.4 0 1.3.2 2.6.4 3.9.6 2.9 2.5 5.3 5.2 6.5 2.7 1.3 5.6 2 8.6 2h2c2.2-.2 4.3-1.1 6-2.6.3.8.6 1.6 1 2.3.1.2.2.3.3.5 7 9 14.2 13.8 21.4 14.1h.8c4.2 0 8.2-1.6 11.3-4.5l.3-.4c1.1-1.6 9-13.7 8.4-23.5.8.3 1.6.5 2.5.5 2.4.1 4.8.4 7.1.9 2.5.5 5 .8 7.5.9 3 .2 6-.9 8.2-3l1.1-1.2c-.1.7-.1 1.4 0 2.1 1.3 5.5 5.3 10 10.6 12 3.5 1.5 7.2 2.3 11 2.3 5 .1 9.8-1.2 14.1-3.8 6-3.8 9.2-8.2 9.4-13.1-.2-5-2.4-9.8-6.2-13.1 2.4 0 4.7-.4 7.1-1 4.9-.9 9.4-3.2 13-6.7.1 1.3.5 2.6 1.2 3.7.6.9 1.4 1.6 2.3 2.2-2.9.9-5.3 3.1-6.4 6-1 4.2-.2 8.7 2.4 12.2 3.5 4.7 9.1 7.4 15 7.3h2.4c5.5-.4 10.4-3.9 12.4-9 1.4-3.7 1-8-1.4-11.3zm-229.8-6c-.2 2.1-.4 4-.5 5.8-.1 2.2-.3 4.4-.8 6.6-.3.1-.7.1-1 0-3.8-1.5-7.1-4-9.6-7.2-.9-1.1-3.4-4.4-3-6.5.3-1.2 1.9-2.4 4.4-3.4 6.6-2.6 8.8-1.7 9.4-1.3s1.4 2.9 1.1 6zm20.4-13c-2 2-7.5 2.8-13.1 1.8-.4 0-.8-.2-1-.5-.3-.9-.3-1.9 0-2.8l.2-1c.3-2.2 1.2-4.3 2.8-6 .3-.2.6-.4 1-.5.9-.3 1.8-.5 2.8-.5 1.4 0 2.7.4 3.9 1.1 2.2 1.3 3.7 3.5 4.1 6 .1.9-.1 1.8-.7 2.4zm149.6-9c-1.8 4.7-2.3 9.7-1.4 14.6-3.4-1.4-7.2-1.4-10.7 0 3.9-3.3 6.9-9.8 8-18.3 1-4.7-.4-9.5-3.8-12.8-1.5-1.3-3.2-2.2-5.1-2.8 3 0 6-.6 8.7-1.9-.5 1.1-.9 2.3-1.1 3.6v.5c.2 2.7 1.5 5.1 3.6 6.8 2.2 1.6 4.9 2.5 7.7 2.6-2.8 1.7-4.9 4.5-5.9 7.7zM164.6 218c-3.2-3-8.4-4.1-15.4-3.5-2.9.2-5.9.7-8.7 1.4 1.2-1.1 2.2-2.4 3-3.8 1.1-2 1.5-4.2 1.2-6.4 4.6 2.9 9.9 4.4 15.3 4.4 1.5 0 3-.1 4.5-.4.9-.2 1.7-.3 2.5-.5-1.2 2.7-2 5.7-2.4 8.8zm-39.9 4.7c-3-2.7-6.9-4.3-10.9-4.6-1.2-.1-2.4-.1-3.6 0 1.6-2.8 2.5-6 2.6-9.2.4 1.3 1 2.6 1.6 3.8 3 6 7.5 9.2 12.8 9.2h1.7c-1 .9-1.8 1.9-2.5 3-.5-.8-1-1.5-1.7-2.2zM105 178.4c1.1 3 2.4 5.9 4 8.6l.3.4c2.4 2.6 5.3 4.6 8.5 6-1.8.7-3.4 2-4.6 3.5-.7 1-1.2 2.1-1.4 3.3-1.6-7.1-5.3-11-15.2-12 1.1-.7 2.1-1.5 3-2.5 2.1-2.2 3.9-4.7 5.4-7.3zm57.6-99.3c-.2.5-.3.9-.5 1.4-.7-1.4-1.5-2.7-2.5-3.8h1.2c1 0 2-.1 3-.4-.4.9-.8 1.9-1.2 2.8zm-18 30.6c1.6-.4 3.2-.9 4.8-1.5-.6 1.8-1 3.7-1 5.6-1.1-1.5-2.4-2.9-3.8-4.1zm29.4 88.1c-1.6 3-5.1 4.9-10.4 5.8-8.5 1.5-19.8-3-22.2-11.4-1.9-6.7.9-9.4 1.5-9.8 4.4-2.1 16.5-6.7 24-4 2.6.9 4.6 2.8 5.6 5.3 2.6 6.1 3.1 10.8 1.5 14.1zm-39.3-8.1c.1 1.4.4 2.8.8 4.2 0 .4.2.7.4 1.1-2-.9-4-1.7-6.1-2.2 1.5-.8 3.2-1.9 4.9-3.1zm-9.5 8.3h1.2c4 .8 10.7 2.8 12.2 7.3.4 1.2.3 2.5-.4 3.7-2.1 3-5.2 5.1-8.7 6-4.1 1.2-7.4-.6-9.8-5.5-2.1-4.3-2.7-7.7-1.5-9.4 2-1.6 4.5-2.4 7-2.1zm36.4-30.6c-4.4-.7-8.3-3.3-10.7-7.1-1.2-1.9-1.4-4.3-.6-6.4 3.7-3.7 8.5-6 13.6-6.4 6.2 0 12.1 2.5 16.4 7 3.7 3.4 5.5 6.4 4.8 7.9-1.8 4-16.3 5.6-23.5 5zm-6.6-24c.8-1.7 1.2-3.5 1.4-5.4 1.4 1.5 3.1 2.8 4.9 3.7-2.2.3-4.3.9-6.4 1.8v-.1zm-9.3 19.8c2.4 4 6 7.1 10.3 8.8-3.8.6-7.6 1.6-11.2 3 .2-1.4.3-2.8.2-4.3.3-5.5-1.9-10.9-6-14.7-.3-.3-.7-.5-1.1-.7 2.1-.3 4.1-.9 6-1.6-.6 3.3 0 6.7 1.8 9.5zm-10.4-2.4c2.4 1.9 3.6 5.1 3.8 10.2.3 8.6-4.5 12-12.5 16.7-5.1 3-11.3-3-12.4-4.1-2.2-3.7-6.8-13.7-4.3-19.5 1.5-2.8 4.3-4.6 7.4-4.8 8.7-1.6 14.7-1.1 18 1.5zm42.6 20.5c-1.5-3.6-4.4-6.5-8-8 7.7-.5 18-2.3 20.7-8.5.3-.7.5-1.4.6-2.1 1.8 1.9 4.1 3.2 6.7 3.8l-3 .6c-4.1.7-7.6 3.3-9.5 6.9-3.7 7.3 0 17.1.6 18.8.4 1.7 1.2 3.3 2.2 4.7-2.7-.3-5.5 0-8 1 1.4-4.6.7-10.4-2.3-17.2zm13.7 10v-.5c-1-2.4-3-9.6-.8-14 1.1-2.1 3.2-3.5 5.5-3.9 2.4-.6 4.8-.9 7.3-1 2.4-.2 4.9.5 6.8 2 1.8 2.1 2.5 4.9 1.9 7.6-1.3 9.6-4.9 15-7.9 15.6-1.2.2-11 1.6-12.8-5.8zm35.8-29c1.4-1 2.7-2 3.9-3 2.6-2 5.1-4 6.4-3.8.4 0 1.3.5 2.8 2.8s4 6.6 3 8.8-4 3.4-9.2 4.5c-4.7.9-8.3.7-10.1-.7-.7-.5-1.2-1.3-1.4-2.1.7-2.6 2.3-4.9 4.6-6.5zM218 151c.5 2.6 0 5.3-1.5 7.5-1.8 2-5.4 2.1-8.6 2.3h-2.2c-6 .3-9.9.2-12.3-6-.8-4.1-.3-8.3 1.6-12 1.4-2.1 3.7-3.4 6.2-3.8 6.3-1.1 10.3-.8 12.7 1s3.5 5.2 4.1 11zm-17-43.1c1-2.2 2.8-4 5-4.9 1.6-.8 3.3-1.2 5.1-1.3 2.5 0 5 1 6.9 2.7 4.1 3 6.2 7.9 5.6 13-.7 3.8-3.4 6.9-7 8.3-3.1 1.4-6.6 1.5-9.7.4-2-1-3.5-2.7-4.2-4.9-2.5-6.2-3-10.2-1.7-13.3zm-3.9 15.7c1.5 4.5 5.2 7.8 9.8 8.8-2.2.1-4.4.3-6.6.7-4.1.6-7.8 2.9-10.1 6.4-2.4 4-3.4 8.7-3 13.3-.9-1-1.8-1.9-2.7-2.8-3.3-3.1-7.2-5.6-11.5-7.1 3.3-.7 6.4-2 9.2-3.8 7.8-5.3 12.9-10.4 14.8-15.5h.1zm-5.1-5.3c0 4.4-4.7 10-13.3 15.7-.3.2-8 5.2-14.3 2.5-4.8-2.1-8-8-9.6-17.7-1-5.8-.2-9.7 2.4-11.6 2-1.2 4.2-1.8 6.5-1.7 7.8 0 18.9 4.1 25.6 7.6 1.6 1.2 2.6 3.2 2.7 5.2zm-30.8-18.5c.9-1.4 1.7-2.8 2.2-4.4.6 1.1 1.3 2.1 2.2 3 .5.5 1 1 1.5 1.4-2-.2-3.9-.2-5.9 0zm12.4-24.2c1.1-.4 2.3-.6 3.5-.6 6.6.6 12.8 2.9 18.2 6.7 2.7 1.6 2.6 3 2.5 3.3-.5 4-10.3 10.3-17.6 12.5-3.8.9-7.8-.4-10.4-3.3-3.1-3.6-3.7-8.7-1.7-13 1-2.6 3-4.7 5.5-5.6zm-31.8-11.8c1.8-4.5 8.4-8.8 10.8-10.1 4.2-2.2 7-3 8.7-2.1s3 3.9 3.4 6.3c1.7 8.3.3 11-.7 12-1.6 1.5-5.2.9-7.9 0s-4.7-1.3-6.6-1.8c-2.8-.5-5.5-1.4-8-2.8-.1-.5 0-1 .3-1.5zm-12.6 20c4.3-4.6 14.2-5.6 19.1-5.6h1.7c3.6-.3 6.5 3.4 7.6 7 1.9 5.7-.5 12-5.8 15-7.1 4.1-13.7 5.2-18 3s-6.2-8-6.7-12.4c-.5-2.5.3-5.1 2.1-7zm-3.8 35.7c5.2-5.5 9.6-7.6 13.1-6.5 7.3 2.4 11 18.9 12 25-.4 3.2-2.1 6.1-4.6 8-4.8 3.8-13 4.7-23.7 2.7-3.4-1.5-6-4.5-7.1-8.1-1.1-5.6 2.4-12.8 10.3-21.1zm-38.4-1c.2-5.8 2.9-11.1 7.6-14.6 1.1-.7 2.4-1.1 3.7-1.1 1.9.1 3.7.8 5.1 2 8.3 6 9.9 10 9.8 12.3s-1.9 4.2-5.2 6.3c-4.7 2.8-10.4 3.2-15.4 1-2.7-1-4.8-3.2-5.6-5.9zm24.7 9.6c-2 3.7-3 7.8-2.7 12-1.2-3.6-3.7-6.7-7-8.6 3.2-.3 6.3-1.4 9-3l.7-.4zM86 138.5v-.6c0-.8.3-1.5 1-1.9 1.1-.6 2.4-.8 3.7-.8 2.9.1 5.7.6 8.4 1.5h.2c2.6 1.7 4.2 4.4 4.5 7.5 0 .9.2 1.8.4 2.7.3 1.8.7 3.8 0 4.8-.5.5-2.1 1.7-7.6 1.5-3.3.2-6.7-.8-9.2-3-2.3-2.2-1.9-6.8-1.4-11.7zm10.3 21h1.3c5.3 0 9-1.2 11-3.7 2-2.9 2.6-6.5 1.5-9.8-.1-.5-.2-1.1-.2-1.6v-.4c1.5 3.9 4.3 7.1 7.9 9.2l-1.5.2c-6.7.5-12.2 5.7-12.9 12.4-2.8-2.7-5.9-4.9-9.5-6.5l2.4.2zm-20.4 12.7c2.8-6 6-9.2 9.8-9.3 4.3 0 15 6.7 15.2 10.2-.1.5-.3 1-.5 1.4-1.4 2.6-3.1 5.1-5.1 7.3-1.4 1.9-3.7 2.7-6 2.3-2-.5-3.8-1.2-5.6-2.2-4.6-2.3-9.7-5.8-7.8-9.7zm7.9 53.3c-.4 1.8-3.3 3.6-7.9 4.9l-.7.2c-2.8.8-8.5 2.5-10.7 1-2.2-1.5-1.8-6.2-.4-9.4 1.1-3 3.3-5.6 6.1-7 3.3-.9 7.1 1.1 12 6.3 1.2 1 1.7 2.5 1.6 4zm12-5.7c-6.7-.3-8.4-3-10.5-11.4 0-.2-.1-.4-.2-.5-.9-1.9-3-8-1-11.2 1.6-1.9 4.1-2.9 6.6-2.5h1.5c13.4 0 13.8 3.8 14.6 12 .6 3.9-.6 7.8-3.1 10.8-2.1 2-5 3.1-7.9 2.8zm26 12.7c-.8 1.1-2.1 1.7-3.5 1.8-2.5.3-5.1-.1-7.4-1.3-1.1-.4-1.9-1.3-2.1-2.5-.2-1-.3-2-.3-3 0-1.6 0-2.5.5-3s.8-.6 2.2-.6h1.6c2.8.2 5.4 1.2 7.5 3 1.8 1.4 2.3 3.7 1.5 5.6zm33.4 13.7c-2.1 1.7-4.7 2.6-7.4 2.5-5.2-.3-10.9-4.3-16.6-11.5-1.3-2.9-1.3-6.1 0-9 2.3-4.2 8.7-6.9 18.5-7.7 4.4-.4 10 0 12 3 2.8 5.1-2.4 16.5-6.5 22.7zm34.3-24.9c-2 2-6 1.2-10.4.4-2.5-.5-5.1-.8-7.7-.9h-.6c-.8-1.2.5-6.6 2.6-11.4 2.1-1.8 11.4-9.2 17.7-4.2 2.1 1.3 3.4 3.5 3.7 6 .2 4.2-3.6 8.5-5.3 10.1zm8-18.3c1.3.3 2.7.4 4 .4 1.3 0 2.5-.1 3.8-.3.3-.1.6-.2 1-.3-2.2 1.7-4.2 3.7-5.7 6-.6-2.2-1.7-4.2-3.1-5.8zm30 29c-5.9 3.5-13.1 4-19.3 1.2-3.5-1.2-6.1-4.1-7.1-7.6-.8-4.4 3.3-14.6 9.5-18.4 3.6-2.3 8.3-1.8 11.4 1.1 8.1 6 12.4 11.4 12.2 15.5-.2 2.7-2.6 5.5-6.7 8.2zm22.9-34.2c-1 1.8-3.6 4.4-10.9 6.2-3.8 1-8.8 1.5-11.3-1.2s-2.5-8.2-.3-14.7c.5-2.2 1.9-4.1 3.9-5.2.8-.3 1.6-.5 2.5-.5 1.5 0 3 .4 4.3 1 4.6 3.1 8.7 7 12 11.5.3 1.1.2 2-.2 2.9zm9.8 3l.2-1c.3-2.2 1.2-4.3 2.8-6 .3-.2.6-.4 1-.5.9-.3 1.8-.5 2.8-.5 1.4 0 2.7.4 3.9 1.1 2.2 1.3 3.7 3.5 4 6 .3.9 0 1.9-.7 2.6-2 2-7.5 2.8-13 1.8-.4 0-.8-.2-1-.5-.5-.9-.5-2 0-3zm17.5 22.6c-1.5 3-4.4 4.9-7.7 5-4.5.6-8.9-1.1-11.8-4.6-.8-1.1-2.6-4.9-1.6-7.2 1.1-2.3 4.3-2.8 7-3 4.6-.5 11 1 13.5 4.2 1.2 1.7 1.4 3.8.6 5.6zm-241.3-2.6c-4.4-2.2-9.6-2.2-14 0-3.6 2.4-6 6.2-6.6 10.5-.2 1.5.8 3 2.3 3.3l12.9 2.8h1.4c3.4-.9 11.2-3.6 11.5-8.8.4-4.6-5.5-7-7.5-7.8zm-4.8 10.6l-9-1.9c.6-1.4 1.7-2.7 3-3.5 2.8-1.2 6-1.1 8.7.4 1.3.5 2.6 1.1 3.7 2-1.9 1.4-4 2.4-6.4 3zm221.7 1.9c-4.4-2.2-9.6-2.2-14 0-3.6 2.4-6 6.3-6.6 10.5-.2 1.5.8 3 2.3 3.3l12.9 2.8h1.4c3.4-.9 11.2-3.6 11.5-8.8.4-4.7-5.5-7.1-7.5-7.8zm-4.8 10.5l-9-2c.6-1.5 1.7-2.7 3-3.5 2.8-1.2 6-1 8.7.4 1.3.5 2.6 1.1 3.7 2-1.9 1.5-4.1 2.6-6.4 3.1zm-62-14c-4-.4-8.1.4-11.6 2.5-3 1.3-5.2 3.9-6 7.1-.2 2.7.7 5.3 2.6 7.3.8 1.1 1.6 2.1 2.6 3a9.1 9.1 0 006.3 2.5h1.7c3.6-.6 7-2.2 9.8-4.6 4.3-3.3 5.1-9.5 1.8-13.8-1.7-2.2-4.3-3.6-7.1-3.8v-.2zm1.3 13.2c-1.9 1.6-4.2 2.6-6.6 3-1.1.3-2.2 0-3-.8-.7-.7-1.4-1.5-2-2.4-1-1.3-1.4-2.1-1.3-2.7.1-.6.5-1.3 3-2.6 2.3-1.5 5.1-2.1 7.9-1.9 1.9.3 4 1.9 4.1 3.8-.1 1.4-.8 2.8-2.1 3.6z"/>
</svg>
