<svg height='300px' width='300px'  fill="#000000" xmlns="http://www.w3.org/2000/svg" viewBox="0 0 100 100" x="0px" y="0px"><title>AQUARIUM_ICONS_100_2</title><path d="M94,71.41a5.5,5.5,0,0,0-2.55-1.71,3.94,3.94,0,0,0,1.36-.86,2.86,2.86,0,0,0,.78-2.64,4.81,4.81,0,0,0-2.32-3.33,4.59,4.59,0,0,0-3.91-.34,3.32,3.32,0,0,0-.82.43,3.49,3.49,0,0,0-1,1.26l0,0a1,1,0,0,0-.1-.19,17.8,17.8,0,0,0-4.75-4.55l-.09-.05a5.85,5.85,0,0,0-1.1-.39c2-.52,3.14-1.32,3.62-2.48.67-1.6-.24-3.33-1.2-4.81a3.68,3.68,0,0,0-2.28-1.81c-1.27-.21-2.33.6-3.68,1.63-.38.29-.79.61-1.25.93l-.18.15a6.93,6.93,0,0,0,.18-2.47c-.21-2.52-.88-4.14-2.12-5.09a4.57,4.57,0,0,0-1.9-.82,8,8,0,0,0,2.19-.49,5.7,5.7,0,0,0,3.63-4.27,6.66,6.66,0,0,0-2.5-6.19,5.4,5.4,0,0,0-6.2-.78,5.11,5.11,0,0,0-2.64,2.69,5,5,0,0,0-.31,1.36,4.19,4.19,0,0,0-.71-.59,32,32,0,0,0-3.52-1.53l.14,0c2.12-.64,6.9-3,7.27-5.83a3.06,3.06,0,0,0-1.79-3.07C63.64,24,60,22.36,57.24,23.3c-.14,0-.26.13-.39.18a8.66,8.66,0,0,0,0-4.55c-.37-1.8-1.12-3-2.23-3.51-1.56-.74-3.34,0-4.71.74h0c-.36.19-3.53,1.93-4.52,4.38a2.5,2.5,0,0,0-.05,2.14,3.41,3.41,0,0,0,2.25,1.5c-1.91.2-4.48.77-6,2.38a4.76,4.76,0,0,0-1.24,4c.37,3.33,1.86,4.86,3.12,5.57a10.68,10.68,0,0,0-3.12,2.36c-.24.25-.45.5-.67.74,0,0,0-.07,0-.1.07-1.81-1.26-3.7-4.08-5.78a4.39,4.39,0,0,0-5.17-.38c-2.32,1.43-3.78,4.95-3.44,6.9a4.71,4.71,0,0,0,2.69,3.27,3.89,3.89,0,0,0-1.78.54,2.73,2.73,0,0,0-1.25,2.13l0,.19c-.19,2-.38,4.06.92,5.54a4,4,0,0,0,1,.81h-.1c-2,.06-3.72,1.5-5,4.26-.58,1.25-.9,3.68,3.52,5.85a14,14,0,0,0,1.37.6,3.6,3.6,0,0,0-1.94,1.39,3.4,3.4,0,0,0,0-.55,4.82,4.82,0,0,0-2.33-3.33,4.58,4.58,0,0,0-3.9-.34,3.31,3.31,0,0,0-.83.43,5.18,5.18,0,0,0-1.69,3.16l-.08.3a4,4,0,0,0-.13,1.3,6.55,6.55,0,0,0-4.28.57,4,4,0,0,0-2.66,2.46c-.4,1.46.5,2.86,1.32,3.91C12,72.58,14,75,16.18,75.45a3.36,3.36,0,0,0,.69.08,2,2,0,0,0,1.21-.38c.88-.66,1-1.85,1.12-3.67,0-.55.09-1.17.17-1.85a6.25,6.25,0,0,0-.08-2l.2.06a11.4,11.4,0,0,0,2,.18,5.86,5.86,0,0,0,4.13-1.32,2.93,2.93,0,0,0,.19-.24A8.32,8.32,0,0,0,26.5,70l.13.48a4.61,4.61,0,0,0-3.72-.72c-1.55.42-2.75,2.06-3.36,3.45h0c-1,2.37-.71,4.5.83,5.58a3.55,3.55,0,0,0,2.06.56,11.79,11.79,0,0,0,3.22-.61l.21-.06c2.32-.68,3.67-1.71,4-3.08a2.75,2.75,0,0,0,.07-.72,6.69,6.69,0,0,0,1.87.34h.31a5.47,5.47,0,0,0,2.15-.43,4.92,4.92,0,0,0,0,1.13,8.7,8.7,0,0,0,.14,1.31,3,3,0,0,0,1.73,2.18,6.33,6.33,0,0,0,2.86.66,6.73,6.73,0,0,0,.67,0,3.74,3.74,0,0,0,2-.85A5.34,5.34,0,0,0,42,80a1,1,0,0,0,.1.15c2.34,3,4.73,4.6,7.12,4.71h.27a5.41,5.41,0,0,0,3.75-1.5l.1-.12c.36-.54,3-4.58,2.81-7.84a2.22,2.22,0,0,0,.82.16,14,14,0,0,1,2.38.3,14.27,14.27,0,0,0,2.49.3,3.71,3.71,0,0,0,2.73-1l.38-.39a4.13,4.13,0,0,0,0,.71,5.68,5.68,0,0,0,3.54,4,9,9,0,0,0,3.67.78A8.82,8.82,0,0,0,76.85,79c2-1.26,3.07-2.72,3.14-4.36a6.26,6.26,0,0,0-2.05-4.38h0a9.81,9.81,0,0,0,2.35-.32,8.37,8.37,0,0,0,4.32-2.24A2.57,2.57,0,0,0,85,68.94a2.31,2.31,0,0,0,.78.72,3.37,3.37,0,0,0-2.13,2,5,5,0,0,0,.79,4.08h0a6.1,6.1,0,0,0,5,2.43,6.85,6.85,0,0,0,.79,0,4.79,4.79,0,0,0,4.14-3A3.69,3.69,0,0,0,94,71.41Zm-76.6-2c-.08.71-.13,1.35-.17,1.92a11.9,11.9,0,0,1-.27,2.2.91.91,0,0,1-.34,0,7.32,7.32,0,0,1-3.2-2.41c-.29-.36-1.15-1.47-1-2.15.11-.39.63-.79,1.46-1.12,2.2-.87,2.93-.58,3.14-.42S17.49,68.38,17.38,69.41Zm6.8-4.33c-.67.67-2.5.92-4.35.59a.49.49,0,0,1-.34-.16,1.32,1.32,0,0,1,0-.92l.08-.32a3.59,3.59,0,0,1,.92-2h0a1.28,1.28,0,0,1,.33-.17,2.74,2.74,0,0,1,.92-.16,2.59,2.59,0,0,1,1.3.35,2.82,2.82,0,0,1,1.36,2A.88.88,0,0,1,24.18,65.08Zm49.88-3a9.35,9.35,0,0,0-.48,4.87,4.84,4.84,0,0,0-3.56,0c1.31-1.11,2.29-3.27,2.66-6.11a4.59,4.59,0,0,0-1.27-4.28,4.33,4.33,0,0,0-1.69-.92A6.81,6.81,0,0,0,72.65,55a5.19,5.19,0,0,0-.36,1.19,1.05,1.05,0,0,0,0,.16,3.16,3.16,0,0,0,1.21,2.26,4.45,4.45,0,0,0,2.55.86A4.67,4.67,0,0,0,74.06,62.07ZM54.88,72.65c-1.08-1-2.8-1.36-5.14-1.16a18.92,18.92,0,0,0-2.91.46,5,5,0,0,0,1-1.28,3.53,3.53,0,0,0,.4-2.14A9.75,9.75,0,0,0,53.33,70a8.56,8.56,0,0,0,1.5-.13c.29-.05.57-.11.84-.18A11.53,11.53,0,0,0,54.88,72.65ZM41.58,74.24a6.19,6.19,0,0,0-3.64-1.54,5.34,5.34,0,0,0-1.21,0,6.61,6.61,0,0,0,.87-3.08,10.72,10.72,0,0,0,.52,1.26c1,2,2.49,3.07,4.25,3.07a4.55,4.55,0,0,0,.58,0,5,5,0,0,0-.84,1A3.82,3.82,0,0,0,41.58,74.24ZM35,59.46a16.57,16.57,0,0,0,1.35,2.87l.11.14a8.63,8.63,0,0,0,2.84,2,3.44,3.44,0,0,0-1.52,1.18,3.11,3.11,0,0,0-.48,1.09c-.52-2.37-1.75-3.68-5.07-4a5,5,0,0,0,1-.83A13.38,13.38,0,0,0,35,59.46Zm19.2-33.08c-.06.16-.1.31-.15.46a5.78,5.78,0,0,0-.84-1.28c.14,0,.28,0,.41,0a4.22,4.22,0,0,0,1-.13A6.44,6.44,0,0,0,54.22,26.38Zm-6,10.18a10.92,10.92,0,0,0,1.59-.5,6,6,0,0,0-.33,1.88A6.69,6.69,0,0,0,48.2,36.56ZM58,65.93c-.52,1-1.69,1.63-3.47,1.95-2.84.5-6.6-1-7.39-3.8-.64-2.23.29-3.12.49-3.28,1.45-.71,5.5-2.24,8-1.34a3.12,3.12,0,0,1,1.88,1.77C58.37,63.27,58.53,64.85,58,65.93ZM44.9,63.24a7.76,7.76,0,0,0,.27,1.4c0,.12.08.23.12.35a10.63,10.63,0,0,0-2.05-.72C43.78,64,44.35,63.62,44.9,63.24ZM41.73,66l.41,0c1.33.26,3.57.92,4.06,2.45a1.51,1.51,0,0,1-.12,1.22,5.13,5.13,0,0,1-2.89,2c-1.37.41-2.47-.21-3.28-1.83-.71-1.45-.89-2.57-.49-3.14A3,3,0,0,1,41.73,66ZM53.86,55.79a5.11,5.11,0,0,1-3.56-2.37,2.35,2.35,0,0,1-.19-2.13,7.38,7.38,0,0,1,4.55-2.15,7.6,7.6,0,0,1,5.45,2.32c1.24,1.13,1.83,2.12,1.6,2.64C61.1,55.48,56.26,56,53.86,55.79Zm-2.18-8A5.86,5.86,0,0,0,52.15,46s0,0,0,0a5.57,5.57,0,0,0,1.65,1.24A8.41,8.41,0,0,0,51.68,47.83ZM48.56,54.4A7.22,7.22,0,0,0,52,57.34a18.84,18.84,0,0,0-3.73,1,7.86,7.86,0,0,0,.07-1.42,6.29,6.29,0,0,0-2-4.9c-.11-.09-.23-.16-.35-.23a9.12,9.12,0,0,0,2-.55A4.43,4.43,0,0,0,48.56,54.4Zm-3.46-.81c.79.63,1.19,1.71,1.25,3.41.11,2.86-1.51,4-4.18,5.58-1.7,1-3.77-1-4.14-1.38-.73-1.23-2.28-4.56-1.42-6.5a3.05,3.05,0,0,1,2.47-1.6C42,52.56,44,52.72,45.1,53.59ZM59.3,60.43a5.08,5.08,0,0,0-2.68-2.68c2.56-.16,6-.78,6.91-2.84a2.62,2.62,0,0,0,.19-.69,4.29,4.29,0,0,0,2.22,1.27c-.33.06-.68.13-1,.21A4.5,4.5,0,0,0,61.76,58c-1.23,2.43,0,5.7.19,6.26a4.42,4.42,0,0,0,.74,1.57,5.84,5.84,0,0,0-2.68.32C60.54,64.63,60.31,62.7,59.3,60.43Zm4.57,3.32a1,1,0,0,0,0-.15c-.33-.8-1-3.19-.28-4.66a2.56,2.56,0,0,1,1.83-1.29,10.67,10.67,0,0,1,2.44-.33,3.37,3.37,0,0,1,2.28.66,2.76,2.76,0,0,1,.62,2.53c-.42,3.21-1.64,5-2.62,5.2C67.72,65.77,64.47,66.22,63.87,63.75Zm11.92-9.64h0c.48-.34.91-.67,1.31-1,.88-.68,1.71-1.33,2.13-1.25.14,0,.45.18.94.93s1.34,2.19,1,2.94-1.34,1.14-3.05,1.49c-1.56.31-2.75.23-3.38-.24a1.24,1.24,0,0,1-.47-.71A3.79,3.79,0,0,1,75.79,54.11Zm-3.14-3.78a3.39,3.39,0,0,1-.49,2.51c-.59.67-1.8.71-2.86.75l-.73,0c-2,.1-3.31.06-4.1-2A6.2,6.2,0,0,1,65,47.58a3,3,0,0,1,2.07-1.26c2.09-.38,3.43-.27,4.23.34S72.48,48.41,72.64,50.33ZM67,35.95a3.15,3.15,0,0,1,1.67-1.63,3.84,3.84,0,0,1,1.71-.42,3.43,3.43,0,0,1,2.29.91,4.66,4.66,0,0,1,1.86,4.32,3.69,3.69,0,0,1-2.35,2.76,4.29,4.29,0,0,1-3.24.13,2.78,2.78,0,0,1-1.4-1.62C66.72,38.33,66.56,37,67,35.95Zm-1.31,5.24a4.44,4.44,0,0,0,3.27,2.93,14.06,14.06,0,0,0-2.2.24,4.93,4.93,0,0,0-3.38,2.13,7.29,7.29,0,0,0-1,4.43,11.68,11.68,0,0,0-.91-.93,11.25,11.25,0,0,0-3.84-2.38,9.6,9.6,0,0,0,3.06-1.26h0C63.3,44.59,65,42.87,65.64,41.19ZM64,39.44c0,1.46-1.56,3.32-4.44,5.23-.11.07-2.66,1.74-4.78.82-1.59-.69-2.67-2.67-3.21-5.89-.33-1.94-.06-3.24.79-3.86a3.69,3.69,0,0,1,2.18-.55c2.6,0,6.3,1.38,8.53,2.52A2.24,2.24,0,0,1,64,39.44ZM53.74,33.25a5.79,5.79,0,0,0,.72-1.47,5.56,5.56,0,0,0,.72,1,5.72,5.72,0,0,0,.51.48A9.85,9.85,0,0,0,53.74,33.25Zm4.14-8.05A3.65,3.65,0,0,1,59.06,25a12.78,12.78,0,0,1,6.08,2.23c.91.55.86,1,.84,1.1-.17,1.33-3.42,3.44-5.86,4.17a3.56,3.56,0,0,1-3.46-1.1,4,4,0,0,1-.57-4.32A3,3,0,0,1,57.88,25.19ZM47.26,21.28c.61-1.5,2.81-2.93,3.61-3.36,1.39-.74,2.34-1,2.91-.69s1,1.31,1.12,2.1c.56,2.76.1,3.68-.23,4-.54.5-1.74.29-2.64,0s-1.56-.43-2.21-.61a8.16,8.16,0,0,1-2.68-.94A1,1,0,0,1,47.26,21.28Zm-4.2,6.64c1.44-1.53,4.73-1.85,6.37-1.85H50c1.19-.09,2.16,1.14,2.52,2.33a4.22,4.22,0,0,1-1.94,5c-2.36,1.36-4.56,1.72-6,1s-2.07-2.67-2.24-4.12A2.81,2.81,0,0,1,43.05,27.92ZM41.81,39.83C43.55,38,45,37.3,46.19,37.68c2.44.81,3.68,6.31,4,8.32a4.14,4.14,0,0,1-1.54,2.68c-1.6,1.27-4.33,1.58-7.9.91a4.24,4.24,0,0,1-2.36-2.71C38,45,39.15,42.59,41.81,39.83ZM29,39.49a6.27,6.27,0,0,1,2.52-4.86,2.3,2.3,0,0,1,1.22-.37,2.88,2.88,0,0,1,1.71.65c2.75,2,3.3,3.35,3.27,4.1S37.1,40.42,36,41.12a5.56,5.56,0,0,1-5.14.32A3,3,0,0,1,29,39.49Zm8.23,3.21a7.26,7.26,0,0,0-.89,4A5.11,5.11,0,0,0,34,43.85a7.35,7.35,0,0,0,3-1Zm-8.56,3.45,0-.19a.74.74,0,0,1,.33-.64,2.34,2.34,0,0,1,1.22-.25,9.43,9.43,0,0,1,2.8.51l.07,0a3.37,3.37,0,0,1,1.51,2.5,5.07,5.07,0,0,0,.12.91c.11.6.24,1.27,0,1.61-.15.18-.7.57-2.53.51a4.27,4.27,0,0,1-3.07-1C28.35,49.35,28.5,47.79,28.65,46.15Zm3.43,7h.44c1.77,0,3-.4,3.68-1.22a3.7,3.7,0,0,0,.49-3.28,4.3,4.3,0,0,1-.08-.54s0-.09,0-.13a6.14,6.14,0,0,0,2.63,3.07l-.51.08a4.66,4.66,0,0,0-4.3,4.13,11.21,11.21,0,0,0-3.15-2.18ZM25.29,57.4c.94-2,2-3.07,3.26-3.1h0c1.43,0,5,2.23,5.07,3.4a1.51,1.51,0,0,1-.18.46,11.35,11.35,0,0,1-1.7,2.42,2,2,0,0,1-2,.76,7.91,7.91,0,0,1-1.87-.72C26.36,59.87,24.68,58.71,25.29,57.4Zm2.65,17.77c-.15.6-1.11,1.19-2.62,1.63l-.22.06c-.92.27-2.83.83-3.57.32s-.61-2.06-.14-3.14a4.12,4.12,0,0,1,2.05-2.33c1.11-.3,2.38.38,4,2.11A1.71,1.71,0,0,1,27.93,75.17Zm4-1.91c-2.22-.11-2.8-1-3.5-3.8a1,1,0,0,0-.06-.18c-.29-.63-1-2.66-.32-3.73a2.48,2.48,0,0,1,2.19-.85h.5c4.47,0,4.59,1.28,4.86,4a4.54,4.54,0,0,1-1.05,3.6A3.25,3.25,0,0,1,31.92,73.26Zm8.67,4.23a1.56,1.56,0,0,1-1.15.6A4.47,4.47,0,0,1,37,77.67a1.06,1.06,0,0,1-.69-.82h0a7.52,7.52,0,0,1-.1-1c0-.53,0-.83.17-1s.27-.2.74-.2a4.25,4.25,0,0,1,.54,0,4.32,4.32,0,0,1,2.51,1A1.59,1.59,0,0,1,40.59,77.49Zm11.13,4.57a3.48,3.48,0,0,1-2.46.82c-1.72-.1-3.63-1.43-5.53-3.85a3.54,3.54,0,0,1,0-3c.77-1.4,2.91-2.29,6.18-2.57,1.46-.12,3.33,0,4,1C54.85,76.19,53.09,80,51.72,82.05Zm11.44-8.28c-.66.65-2,.41-3.46.14a14.34,14.34,0,0,0-2.57-.3h-.21c-.26-.4.16-2.21.87-3.81.69-.59,3.79-3.07,5.91-1.4a2.77,2.77,0,0,1,1.24,2C65,71.81,63.72,73.23,63.16,73.77Zm2.64-6.11a7.23,7.23,0,0,0,1.34.13,8,8,0,0,0,1.26-.1,3,3,0,0,0,.32-.1,8.35,8.35,0,0,0-1.91,2A4.43,4.43,0,0,0,65.8,67.66Zm10,9.65a7,7,0,0,1-6.45.4A3.8,3.8,0,0,1,67,75.18c-.25-1.46,1.1-4.85,3.17-6.13a3.13,3.13,0,0,1,3.8.35c2.71,2,4.12,3.79,4.06,5.16C78,75.5,77.21,76.42,75.79,77.31Zm7.66-11.37c-.32.61-1.2,1.47-3.63,2.07-1.26.32-2.93.5-3.76-.4s-.83-2.73-.1-4.9A2.6,2.6,0,0,1,77.3,61a2.16,2.16,0,0,1,.83-.15,3.79,3.79,0,0,1,1.45.33,16.27,16.27,0,0,1,4,3.83A1.49,1.49,0,0,1,83.45,65.93Zm3.24,1,.08-.32a3.59,3.59,0,0,1,.92-2h0a1.31,1.31,0,0,1,.33-.17,2.72,2.72,0,0,1,.92-.17,2.59,2.59,0,0,1,1.3.35,2.81,2.81,0,0,1,1.35,2,.89.89,0,0,1-.23.87c-.67.67-2.5.92-4.35.59a.49.49,0,0,1-.34-.16A1.32,1.32,0,0,1,86.69,66.93Zm5.85,7.52A3,3,0,0,1,90,76.14a4.32,4.32,0,0,1-3.94-1.52h0c-.25-.38-.88-1.62-.52-2.39s1.44-.93,2.32-1c1.52-.16,3.67.34,4.49,1.41A1.71,1.71,0,0,1,92.54,74.45Z"></path><path d="M12.15,73.6a5.17,5.17,0,0,0-4.67,0A5.12,5.12,0,0,0,5.29,77.1a1,1,0,0,0,.78,1.1l4.31.93.21,0a1,1,0,0,0,.26,0c1.12-.31,3.74-1.2,3.83-2.92C14.78,74.65,12.8,73.86,12.15,73.6Zm-1.6,3.53-3-.65a2.47,2.47,0,0,1,1-1.16,3.32,3.32,0,0,1,2.91.14,4,4,0,0,1,1.22.67A6.16,6.16,0,0,1,10.55,77.13Z"></path><path d="M84.44,77.75a5.17,5.17,0,0,0-4.67,0,5.12,5.12,0,0,0-2.19,3.51,1,1,0,0,0,.78,1.1l4.31.93.21,0a1,1,0,0,0,.26,0c1.12-.31,3.74-1.2,3.83-2.92C87.06,78.8,85.09,78,84.44,77.75Zm-1.6,3.53-3-.65a2.46,2.46,0,0,1,1-1.17,3.34,3.34,0,0,1,2.91.14,4,4,0,0,1,1.22.67A6.16,6.16,0,0,1,82.84,81.28Z"></path><path d="M62.15,76.61a6.2,6.2,0,0,0-3.86.84,3.44,3.44,0,0,0-2,2.36,3.24,3.24,0,0,0,.86,2.44,8.59,8.59,0,0,0,.86,1h0a2.94,2.94,0,0,0,2.09.83,4.19,4.19,0,0,0,.57,0,6.46,6.46,0,0,0,3.25-1.53,3.29,3.29,0,0,0-1.77-5.89ZM62.61,81A4.48,4.48,0,0,1,60.4,82a1.07,1.07,0,0,1-1-.27,7.57,7.57,0,0,1-.67-.79c-.33-.42-.46-.69-.43-.9s.17-.45,1-.86a4.33,4.33,0,0,1,2.62-.64c.64.1,1.35.63,1.38,1.25A1.56,1.56,0,0,1,62.61,81Z"></path></svg>