<svg xmlns="http://www.w3.org/2000/svg" viewBox="0 0 256 230.95">
  <path d="M256 2.33v199c-2.71 2.8-6.27 2.87-9.77 2.88q-29 .07-57.94.06l-64.44.06c-2.51 0-5.32-.29-6.3 2.77-3.22 10.1-11.59 14.46-20.49 17.45-25.23 8.49-50.7 8.48-76 .29C12.11 222 4.35 217.21 0 208.33v-186c3.38-6.71 8.87-11.1 15.57-14.14A93.72 93.72 0 0154.37.12C118.75 0 183.13.05 247.51 0A14.24 14.24 0 01256 2.33zm-144.87 9.42l-.76 1.51c7.37 5.66 8.09 13.45 7.85 21.69-.23 7.82.07 15.65-.09 23.46-.08 4 1.22 5.86 5.48 5.62 4.47-.25 9 0 13.47 0h95.86c6.43 0 6.66-.32 6.67-6.87 0-13.48-.05-27 .07-40.44 0-3.63-1.26-5-5-5-36.1.08-72.19 0-108.29 0zM179 128.05c18.31 0 36.63-.1 55 .06 4.32 0 5.87-1.44 5.81-5.8q-.3-20.48 0-41c.07-4.5-1.64-5.71-5.91-5.59-10.64.29-21.29.23-31.94.21-25.79 0-51.59-.06-77.38-.26-4.82 0-6.43 1.92-6.37 6.57q.27 19.73 0 39.46c-.06 4.66 1.5 6.46 6.38 6.4 18.06-.19 36.21-.05 54.41-.05zm-.17 64V192c18.48 0 37-.09 55.43.07 4.18 0 5.54-1.52 5.49-5.58-.17-13.48-.22-27 0-40.45.06-4.52-1.59-6.34-6.09-6.3-13.64.13-27.29 0-40.93.07-22.78 0-45.56.22-68.34 0-4.59 0-6.28 1.14-6.21 5.8.21 13.31.27 26.63 0 39.95-.09 5.08 1.83 6.62 6.73 6.56 17.92-.19 35.89-.07 53.87-.07zM11.31 66.53v12c0 10.7 2.58 14.33 12.75 18a70.2 70.2 0 007.67 2.25c14.29 3.43 28.8 2.72 43.25 1.82a56.81 56.81 0 0022.12-5.7c4.52-2.28 8.73-5.11 8.73-11.1 0-11.16 0-22.32.08-33.49 0-3.28-.69-4.45-4.41-3.1-29 10.48-57.94 10.58-86.77-.54-3-1.15-3.47-.29-3.44 2.37.07 5.83.02 11.66.02 17.49zm0 58.82c0 4.66.35 9.35-.08 14-.63 6.87 2.7 11 8.33 14a46.15 46.15 0 009.31 3.54c13.85 3.85 28 3.7 42.15 2.87 9.45-.55 18.91-2 27.4-6.81 4.06-2.27 7.42-5.18 7.43-10.4v-34.46c0-3.25-1.06-3.47-3.93-2.38q-43.32 16.45-86.69-.07c-3.48-1.33-4-.35-4 2.78.17 5.58.1 11.26.09 16.93zm0 58.83c0 4.32.41 8.7-.09 13-.88 7.57 2.68 12 9.22 14.65 2.46 1 4.94 2 7.48 2.78 15.56 4.72 31.47 5.19 47.44 3.13 8.73-1.13 17.35-3.17 25.07-7.83 3-1.81 5.36-4 5.37-7.83v-35.44c0-3-1.16-3.16-3.76-2.2-28.89 10.62-57.85 10.7-86.71-.11-3.59-1.35-4-.07-4 2.9.05 5.63.01 11.29.01 16.95zM58.46 42.69A108.93 108.93 0 0086.19 40c6.34-1.52 12.55-3.49 17.16-8.53 3.08-3.36 3-6-.57-8.9-4.07-3.31-8.94-5-13.89-6.59-9.14-2.88-18.59-3.83-28.06-4-13.36-.2-26.62 1.06-39.09 6.43-4.19 1.84-9.81 3.59-9.74 8.88s5.34 7.59 9.8 9.56C33.52 42 46 42.48 58.46 42.69zm.29-21c-3.5-.06-5.66 2.1-5.72 5.54A5.24 5.24 0 0058.58 33c3.42 0 5.42-2 5.75-5.57-.22-3.52-2.11-5.65-5.58-5.71z" data-name="Слой 1"/>
</svg>
