<?xml version="1.0" encoding="utf-8"?>
<!-- Generator: Adobe Illustrator 22.1.0, SVG Export Plug-In . SVG Version: 6.00 Build 0)  -->
<svg version="1.1" id="Слой_1" xmlns="http://www.w3.org/2000/svg" xmlns:xlink="http://www.w3.org/1999/xlink" x="0px" y="0px"
	 viewBox="0 0 621.8 596.1" enable-background="new 0 0 621.8 596.1" xml:space="preserve">
<path fill="#F07E0F" d="M317.3,306c5.7-1.9,11.5-3.6,17-6.1c15.8-7.4,29.9-17.5,43.1-28.7c16.4-13.9,31.1-29.3,43.8-46.6
	c8-10.8,15.1-22.1,20.2-34.5c1.9-4.6,3.3-9.3,4-14.2c0.6-3.6-0.3-4.4-3.9-3.7c-10.9,2-20.7,6.6-30.1,12
	c-16.4,9.7-31.2,21.5-44.9,34.7c-16.3,15.8-30.9,32.9-42.5,52.4c-3,5.1-5.7,10.3-8,15.9c-2.2,5.5-3.7,11.1-4.9,17
	c-1.1-1.1-0.9-2.4-1.1-3.5c0.8-0.3,1.1-0.9,1.2-1.8c3.4-18.7,12-35.2,21.8-51.1c12.7-20.7,27.9-39.5,44.5-57.3
	c21.2-22.7,44.2-43.2,70-60.4c14.4-9.7,29.5-18.2,46-23.9c5.4-1.8,10.9-3.2,16.6-4c5-0.8,5.9,0.1,5.1,5.1
	c-1.7,12.1-6,23.3-11.3,34.1c-10.9,22.1-25.1,41.8-40.9,60.7c-11.8,14.1-24.5,27.2-38,39.6c-22.9,21.1-47.4,40-75.5,53.8
	c-8.9,4.4-18.2,8.2-28.1,10C320.2,305.9,318.7,305.9,317.3,306L317.3,306z"/>
<path fill="#1AA2DD" d="M310.1,297c-20.2-50-56.4-85.9-101.4-113.9c-8-5.1-16.8-8.8-26.4-10.5c-5.6-1.1-6.4-0.5-5.3,4.9
	c3.2,15.9,11.4,29.7,20.7,42.6c21.1,29.4,46.7,54.2,77.7,73.2c8.3,5.1,16.9,9.3,26.5,11.6c1.2,0.3,3.2,0.2,3.2,2.2
	c0,0.2-1.2,0.5-1.9,0.9c-0.9-1.3-2.1-1.9-3.6-2.3c-23.1-5.4-43.1-17.1-62.1-30.6c-40.6-28.9-75.2-63.8-103.3-105.1
	c-12.1-17.8-22.4-36.5-27-57.8c0-0.2-0.1-0.3-0.1-0.5c-1.9-9.6-0.8-10.8,8.8-8.8c17.2,3.5,33,11,47.7,20.4
	c52.3,33.2,94.9,76,127.6,128.5c7.2,11.6,13.2,24.1,17.2,37.2C309.7,291.6,310.2,294.3,310.1,297L310.1,297z"/>
<path fill="#39ADBA" d="M303.4,308c-17.1,6.2-32.6,15.1-46.6,26.7c-25.3,20.9-47.8,44.3-62.4,74.4c-2.4,4.9-3.9,10.1-5.3,15.4
	c-1.1,4.5,0.4,5.7,4.8,5.1c8.9-1.5,16.9-5.4,24.4-9.9c34.4-20.6,62-48.3,82.5-82.7c3.7-6.2,6.2-13.2,9.3-19.8
	c-1.7,14.5-9,26.9-16.1,39.3c-11.5,20-25.9,38.1-41.5,55.1c-23.4,25.3-49.2,47.8-78.9,65.4c-12.1,7.2-24.6,13.5-38.7,16.3
	c-1.8,0.3-3.7,0.6-5.5,0.8c-4,0.4-5.4-1.6-4.7-5.4c1.5-8.3,3.8-16.4,7.3-24.2c10.5-23.1,25-43.4,41.2-62.8
	c18.9-22.7,40.4-42.7,64-60.4c17.7-13.2,36.1-24.7,57.4-31.4C297.5,308.8,300.3,307.9,303.4,308L303.4,308z"/>
<path fill="#8DC043" d="M311.9,316.5c7.7,17.3,16.4,33.8,29,48.3c20.1,23.1,41.6,44.2,69.4,58.1c5.1,2.6,10.7,4.4,16.1,6.2
	c5.6,1.8,7.4-0.6,6-6.2c-2.7-11.2-8-21.3-14.3-30.6c-21-30.8-46.8-56.4-79.2-75c-6.5-3.8-13.7-5.7-21.1-8.9c2.6-3.2,5.6-2.1,8-2.4
	c-1.8,1.4-3.3,2.4,0.5,3.6c27,8.1,49.9,23.7,71.2,41.3c40,33.5,75.1,71.2,95.6,120.2c2.1,5.1,3.2,10.6,4.2,16
	c1.2,5.9-1.1,7.8-6.9,6.6c-12.8-2.4-24.7-6.9-35.7-13.4c-57-33.8-102.4-78.9-133.6-137.7C316.4,334.6,313.1,326,311.9,316.5
	L311.9,316.5z"/>
</svg>
