<svg xmlns="http://www.w3.org/2000/svg" viewBox="0 0 512 366.79">
  <path d="M512 187.31a15.06 15.06 0 01-4.87 4.92q-30.48 21.83-60.95 43.67c-5.33 3.82-9.2 3.84-14.66-.06q-29.91-21.33-59.71-42.8c-8.89-6.42-8.87-13.1 0-19.48q29.81-21.48 59.76-42.76c5.69-4.05 9.25-3.93 15 .2q29.9 21.36 59.77 42.73a22.53 22.53 0 015.65 5.58zm-512 0a23.5 23.5 0 006.06 5.87q29.3 20.88 58.55 41.82c7 5 10 5 17.07-.07q29.67-21.24 59.32-42.5c7.66-5.5 7.74-12.68 0-18.28q-30.4-21.91-60.94-43.65c-4.93-3.52-9-3.53-13.83-.08q-30.72 21.9-61.4 43.89a22 22 0 00-4.83 5zM354.33 300c20.56-14.74 41.17-29.42 61.68-44.24 6.88-5 6.89-11.91 0-16.87q-30.76-22.23-61.68-44.23c-5.34-3.82-9.21-3.7-14.64.18q-30.06 21.49-60.07 43.06c-8.29 6-8.32 12.83 0 18.82q30.18 21.75 60.46 43.36c2.06 1.48 4.2 2.74 6.91 2.53 2.82.21 5.13-1.03 7.34-2.61zM157.79 194.53q-30.85 22.13-61.71 44.27c-6.64 4.79-6.68 12.18 0 17q30.77 22.26 61.73 44.24c5.25 3.74 9 3.66 14.21 0q29.91-21.33 59.73-42.75 13.72-9.89 0-19.8c-19.85-14.39-39.75-28.6-59.68-42.87-2.21-1.58-4.54-2.8-7.38-2.6-2.64-.13-4.83 1.03-6.9 2.51zm.42-128.28C137.36 81.16 116.47 96 95.7 111c-6.55 4.74-6.48 11.82.12 16.6q30.93 22.4 62.09 44.51c5.16 3.67 9 3.48 14.23-.26q30.47-21.75 60.86-43.62c7.39-5.32 7.34-12.56-.11-17.93Q202.52 88.4 172 66.64c-2.21-1.59-4.52-2.82-7.49-2.63a9.72 9.72 0 00-6.3 2.24zm165.45 107.67q-29.66-21.18-59.29-42.46c-6.73-4.82-10-4.83-16.7 0Q217.82 152.79 188 174.2c-7.4 5.31-7.57 12.72-.24 18q30.58 22.07 61.28 44c4.45 3.19 9 3.43 13.45.26q31.51-22.47 63-45.06a8.38 8.38 0 003.89-7.68c.31-4.54-2.27-7.34-5.72-9.8zM340 66.56Q309.76 88.25 279.51 110c-8 5.75-8 12.91-.1 18.62q30 21.61 60.12 43.06c5.77 4.12 9.38 4.23 15.05.19q30.72-21.9 61.31-44c6.64-4.79 6.75-12.22.1-17-20.64-14.93-41.41-29.7-62.14-44.52a10.4 10.4 0 00-7-2.28c-2.63-.2-4.78 1-6.85 2.49zm-92.47-63L188.25 46c-7.82 5.61-7.81 13 0 18.61q29.63 21.27 59.28 42.49c6.81 4.88 10 4.9 16.69.12Q294.14 85.89 324 64.49c7.37-5.29 7.63-12.76.35-18-20.24-14.64-40.58-29.13-60.88-43.68C261.26 1.2 259-.14 256.07 0c-3.4-.25-5.95 1.67-8.54 3.52zm.16 255.83q-30 21.54-60.08 43.09c-7 5-7 12.69.07 17.77q30 21.62 60.1 43.05c6.69 4.77 10 4.69 16.73-.15q29.85-21.37 59.68-42.79c7-5 7.27-12.75.33-17.76-20.39-14.72-40.87-29.3-61.32-43.93-2.21-1.59-4.53-2.82-7.37-2.6-3.25-.26-5.69 1.52-8.14 3.28z" data-name="Слой 1"/>
</svg>
